<svg id="Layer_1" data-name="Layer 1" xmlns="http://www.w3.org/2000/svg" viewBox="0 0 395.52 395.21"><defs><style>.cls-1{fill:#d03;fill-rule:evenodd;}</style></defs><title>ABSA_Group_Logo</title><path class="cls-1" d="M139.29,495a4.57,4.57,0,0,1,1.63-.59,173.14,173.14,0,0,0,313.64-.12c7.48,3.46,14.93,7,22.42,10.43a49.81,49.81,0,0,1-2.19,4.69,197.9,197.9,0,0,1-151.91,108,111.78,111.78,0,0,1-15.28,1.15H287.52a107.78,107.78,0,0,1-13.66-1,198,198,0,0,1-143.47-90.8,187.5,187.5,0,0,1-12-22Q128.85,499.89,139.29,495Zm278-68.65c-2.58.19-5.18.25-7.74.63-1.9.3-3.95.77-5.33,2.22a7.39,7.39,0,0,0-1.62,4.93,8.81,8.81,0,0,0,1.77,6,9.9,9.9,0,0,0,6,3c5,.81,10,.16,14.94-.69,0-5.52,0-11,0-16.56C422.67,426,420,426.19,417.3,426.35ZM389.09,385a83.42,83.42,0,0,1,31.34-3.07,41.49,41.49,0,0,1,12.84,3.16,20.93,20.93,0,0,1,8.43,6.61,22.42,22.42,0,0,1,3.93,9.91,43.66,43.66,0,0,1,.45,7.58q0,23.16,0,46.3a107.75,107.75,0,0,1-29.39,5.23,76.19,76.19,0,0,1-14.39-1,30.42,30.42,0,0,1-12.23-4.7,18.22,18.22,0,0,1-6.37-8c-1.9-4.62-2.15-9.72-1.85-14.65.32-4.2,1.39-8.52,4-11.91a18.12,18.12,0,0,1,8.57-5.91c4.59-1.61,9.48-2.08,14.3-2.44,5.55-.34,11.1-.56,16.64-.9,0-2.42.12-4.93-.76-7.22a5.93,5.93,0,0,0-3.17-3.35,18.93,18.93,0,0,0-7.07-1.25,83,83,0,0,0-15.27.75c-3.9.52-7.79,1.12-11.63,2C387.92,396.45,388.54,390.73,389.09,385Zm-56.62-2.89a75.54,75.54,0,0,1,16.19-.22,87.5,87.5,0,0,1,16.27,3.1q.87,8.58,1.66,17.16a112.6,112.6,0,0,0-12.5-2.16,78.58,78.58,0,0,0-17.94-.32c-2,.3-4.21.71-5.76,2.16s-1.77,3.54-1.69,5.46a3.71,3.71,0,0,0,1.95,3.13,15,15,0,0,0,6.06,1.35c5.7.32,11.45.07,17.1,1.06,4.29.7,8.63,2.09,12,5a18,18,0,0,1,5.66,9.82,37.89,37.89,0,0,1,.51,13.09,21.09,21.09,0,0,1-4.4,10.86,21.8,21.8,0,0,1-9.71,6.42,53.09,53.09,0,0,1-14.19,2.58c-9.57.53-19.31,0-28.51-2.83-1.37-.43-2.75-.83-4.07-1.38-.52-5.7-1.1-11.41-1.65-17.11A89.07,89.07,0,0,0,338,443a37.56,37.56,0,0,0,7.84-.84,8.29,8.29,0,0,0,4.09-2.18,7.18,7.18,0,0,0,1.5-5.43,5.58,5.58,0,0,0-1.93-4.17c-1.67-1.28-3.84-1.53-5.85-1.75-4.71-.36-9.45-.08-14.15-.51-4.52-.38-9.12-1.13-13.14-3.31a15,15,0,0,1-6.62-7,23.85,23.85,0,0,1-1.88-9.21c-.11-5.05.54-10.29,3.06-14.76a20,20,0,0,1,8.39-7.93A39.16,39.16,0,0,1,332.47,382.12ZM179.3,426.72a16,16,0,0,0-6.17,1.48,5.27,5.27,0,0,0-2.58,3.37,12.11,12.11,0,0,0,0,5.77,6.81,6.81,0,0,0,2.67,3.94,12.46,12.46,0,0,0,5.52,1.92,45.94,45.94,0,0,0,14.22-.82c0-5.51,0-11,0-16.54C188.41,426.12,183.85,426.4,179.3,426.72Zm-9-44.51a79.19,79.19,0,0,1,16.14-.41,45.15,45.15,0,0,1,13.45,2.87,21.77,21.77,0,0,1,8.9,6.36,21.24,21.24,0,0,1,4.12,8.82,37.6,37.6,0,0,1,.79,8.53V455.5A104.71,104.71,0,0,1,181,460.75,62.5,62.5,0,0,1,166.33,459a25.57,25.57,0,0,1-9.83-4.8,18.33,18.33,0,0,1-5.68-8.35A34.59,34.59,0,0,1,149.49,432a21.18,21.18,0,0,1,4.16-11.55,19,19,0,0,1,8.92-5.91,55.58,55.58,0,0,1,13.79-2.37c5.53-.35,11.08-.53,16.61-.92-.05-2.5.11-5.11-.89-7.47a6,6,0,0,0-3.29-3.19A19.92,19.92,0,0,0,182,399.4a83.69,83.69,0,0,0-15.5.77c-3.86.5-7.7,1.14-11.5,2,.49-5.7,1.14-11.39,1.6-17.09A75.81,75.81,0,0,1,170.28,382.21Zm290-20.31c7.76-2.82,15.52-5.61,23.25-8.49,1.6,4.12,2.89,8.36,4.15,12.6a197.34,197.34,0,0,1,7.6,46.53c.14,5.17,0,10.34.07,15.51a198.13,198.13,0,0,1-11.75,60.82c-7.79-2.76-15.55-5.65-23.32-8.46A173.9,173.9,0,0,0,461.05,364C460.81,363.27,460.55,362.59,460.33,361.9Zm-348.6-8.4c1.59.38,3.08,1.09,4.63,1.6,6.24,2.26,12.47,4.55,18.71,6.8a174.12,174.12,0,0,0,0,118.52q-11.64,4.21-23.27,8.47a198.79,198.79,0,0,1-5.09-119.44C108.14,364.06,109.86,358.75,111.73,353.5Zm136.55,47.32q0,20.34,0,40.68A45.8,45.8,0,0,0,262,442.94a16.09,16.09,0,0,0,7.94-2.38,13.06,13.06,0,0,0,4.89-6.88c1.64-5,1.66-10.3,1.54-15.49a31.09,31.09,0,0,0-2.23-11.28,12,12,0,0,0-5-5.67,19,19,0,0,0-8.75-1.94A50.84,50.84,0,0,0,248.28,400.82Zm-20.73-56.55c6.91-.75,13.81-1.54,20.72-2.24q0,20.69,0,41.37a81.08,81.08,0,0,1,12.89-1.78c6.57-.22,13.36.42,19.43,3.12a25.07,25.07,0,0,1,11.25,9.87c3.18,5.15,4.66,11.15,5.37,17.11a86.48,86.48,0,0,1,.2,16.95,49.79,49.79,0,0,1-2.77,13,27.72,27.72,0,0,1-6.12,9.8,27,27,0,0,1-10.44,6.5,52.73,52.73,0,0,1-15.26,2.68c-12,.68-23.89-1.57-35.27-5.13Q227.53,399.88,227.55,344.27Zm-4.86-106.22a198,198,0,0,1,252.43,95.52c.64,1.33,1.35,2.63,1.88,4L454.57,348a173,173,0,0,0-186.45-97.39,171,171,0,0,0-48,15.83,173.82,173.82,0,0,0-71.43,66.7c-2.86,4.81-5.46,9.79-7.85,14.85-7.49-3.47-15-7-22.45-10.46a198.18,198.18,0,0,1,104.31-99.51Z" transform="translate(-99.88 -223.34)"/></svg>