<svg xmlns="http://www.w3.org/2000/svg" width="48" height="48" viewBox="0 0 48 48">
  <g id="Group_671" data-name="Group 671" transform="translate(-71 -600)">
    <path id="ic_collections_24px" d="M42,30V6a4.012,4.012,0,0,0-4-4H14a4.012,4.012,0,0,0-4,4V30a4.012,4.012,0,0,0,4,4H38A4.012,4.012,0,0,0,42,30ZM20,22l4.06,5.42L30,20l8,10H14ZM2,10V38a4.012,4.012,0,0,0,4,4H34V38H6V10Z" transform="translate(69 606)" fill="#b7b7b7"/>
    <g id="Group_659" data-name="Group 659" transform="translate(12 -7)">
      <circle id="Ellipse_153" data-name="Ellipse 153" cx="8" cy="8" r="8" transform="translate(91 607)" fill="#b7b7b7"/>
      <g id="Group_658" data-name="Group 658" transform="translate(99 609.343) rotate(45)">
        <line id="Line_88" data-name="Line 88" x2="8" transform="translate(0 4)" fill="none" stroke="#fff" stroke-width="0.5"/>
        <line id="Line_89" data-name="Line 89" x2="8" transform="translate(4 0) rotate(90)" fill="none" stroke="#fff" stroke-width="0.5"/>
      </g>
    </g>
  </g>
</svg>
