<svg xmlns="http://www.w3.org/2000/svg" viewBox="0 0 402.92 143.76"><defs><style>.cls-1{fill:#3cb879;}.cls-2{fill:#3e3e3e;}</style></defs><title>Asset 1</title><g id="Layer_2" data-name="Layer 2"><g id="Layer_1-2" data-name="Layer 1"><path class="cls-1" d="M185.69,132.88h4.17V141h-1.3l-.59-1.21h0a2.87,2.87,0,0,1-2.65,1.43,3.65,3.65,0,0,1-2.45-.85c-.94-.8-1.35-2.17-1.35-5.12v-4c0-3.15.48-4.36,1.35-5.12a4.74,4.74,0,0,1,5.54,0c.86.76,1.34,2,1.34,4.78H187c0-1.85,0-3.09-1.32-3.09s-1.31,1.24-1.31,2.82v5.24c0,1.63,0,2.82,1.31,2.82,1.58,0,1.58-1.76,1.58-3.32h-1.48Z"/><path class="cls-1" d="M196.92,134.66V141h-2.8V125.52H198c3.47,0,4.32,2.06,4.32,4.58h0a4.22,4.22,0,0,1-1.74,3.85L202.7,141h-3l-1.7-6.34Zm0-2.37h.74c1.56,0,1.86-1,1.86-2.17h0c0-1.19-.32-2.15-1.82-2.15h-.78Z"/><path class="cls-1" d="M209.14,134.18v4.43h4.34V141h-7.12V125.52h7V128H209.1v3.76h3.34v2.47Z"/><path class="cls-1" d="M219.13,141h-2.85l2.8-15.52h3.78l2.8,15.52h-2.8l-.52-3.17h-2.71Zm.89-5.66h2l-.65-4.09c-.11-.73-.22-1.73-.26-2.28H221a19.69,19.69,0,0,1-.26,2.28Z"/><path class="cls-1" d="M232.83,128V141h-2.78V128h-2.74v-2.43h8.23V128Z"/><path class="cls-1" d="M246.31,134.18V141h-2.8V125.52h7V128h-4.23v3.76h3.34v2.47Z"/><path class="cls-1" d="M255.08,140.41c-.87-.76-1.35-2-1.35-5.12v-4c0-3.15.48-4.36,1.35-5.12a4.74,4.74,0,0,1,5.54,0c.86.76,1.34,2,1.34,5.12v4c0,3.15-.48,4.36-1.34,5.12A4.74,4.74,0,0,1,255.08,140.41Zm4.08-4.51v-5.24c0-1.6,0-2.82-1.32-2.82s-1.31,1.22-1.31,2.82v5.24c0,1.6,0,2.82,1.31,2.82s1.32-1.22,1.32-2.82Z"/><path class="cls-1" d="M267.41,140.41c-.87-.76-1.35-2-1.35-5.12v-4c0-3.15.48-4.36,1.35-5.12a4.74,4.74,0,0,1,5.54,0c.87.76,1.34,2,1.34,5.12v4c0,3.15-.47,4.36-1.34,5.12A4.74,4.74,0,0,1,267.41,140.41Zm4.08-4.51v-5.24c0-1.6,0-2.82-1.32-2.82s-1.31,1.22-1.31,2.82v5.24c0,1.6,0,2.82,1.31,2.82S271.49,137.5,271.49,135.9Z"/><path class="cls-1" d="M285.36,126.41c1,.8,1.35,2,1.35,4.41v4.93c0,2.45-.39,3.6-1.35,4.4a3.93,3.93,0,0,1-2.67.89h-4.17V125.52h4.17A3.93,3.93,0,0,1,285.36,126.41ZM281.3,128v10.66h1c1.28,0,1.65-.84,1.65-2.1v-6.45c0-1.18-.35-2.11-1.65-2.11Z"/><path class="cls-1" d="M290.4,138.53h2.84V141l-1.39,2.74h-1.39l1.07-2.72H290.4Z"/><path class="cls-2" d="M303.47,141h-2.84l2.8-15.52h3.78L310,141h-2.8l-.53-3.17H304Zm.89-5.66h1.93l-.65-4.09c-.11-.73-.22-1.73-.26-2.28h-.13a19.69,19.69,0,0,1-.26,2.28Z"/><path class="cls-2" d="M316.21,125.52l2.81,6.93a17.88,17.88,0,0,1,.65,1.91h.08c0-.57-.11-1.41-.11-2v-6.82h2.72v15.52h-2.52l-3.13-7.82a16.11,16.11,0,0,1-.69-1.91h-.09c.05.57.11,1.42.11,2v7.73h-2.71V125.52Z"/><path class="cls-2" d="M330.13,131.12h.09l1.78-5.6h2.73l-3.19,9.16V141h-2.82v-6.36l-3.21-9.16h2.8Z"/><path class="cls-2" d="M337,125.52h2.7l1,7.66a19,19,0,0,1,.17,2H341a19.11,19.11,0,0,1,.22-2l1.21-7.66h2.39l1.24,7.66a19.06,19.06,0,0,1,.19,2h.09a17.23,17.23,0,0,1,.17-2l1.07-7.66h2.65L347.8,141h-2.67l-1.26-7.12a19.06,19.06,0,0,1-.19-2h-.09a14.85,14.85,0,0,1-.17,2L342.14,141h-2.67Z"/><path class="cls-2" d="M361.94,125.52V141h-2.78v-6.86h-2.69V141h-2.8V125.52h2.8v6.19h2.69v-6.19Z"/><path class="cls-2" d="M369.34,134.18v4.43h4.34V141h-7.12V125.52h7V128h-4.25v3.76h3.34v2.47Z"/><path class="cls-2" d="M380.28,134.66V141h-2.8V125.52h3.91c3.47,0,4.32,2.06,4.32,4.58h0A4.22,4.22,0,0,1,384,134l2.09,7.05h-3l-1.78-6.38Zm0-2.37H381c1.56,0,1.87-1,1.87-2.17h0c0-1.19-.33-2.15-1.83-2.15h-.78Z"/><path class="cls-2" d="M392.5,134.18v4.43h4.34V141h-7.12V125.52h7V128H392.5v3.76h3.35v2.47Z"/><path class="cls-2" d="M400.14,138.53h2.59V141h-2.59Z"/><path class="cls-2" d="M392.36,72.61h0c-5.82,0-10.54-3.54-10.54-7.9V7.9c0-4.36,4.72-7.9,10.54-7.9s10.55,3.54,10.55,7.9V64.71c0,4.36-4.72,7.9-10.55,7.9"/><path class="cls-2" d="M392.36,100.68a10.55,10.55,0,1,0-10.54-10.56h0a10.56,10.56,0,0,0,10.54,10.55"/><path class="cls-1" d="M49.56,38.61A10.7,10.7,0,0,0,28.17,38h0V49.32H39.5A10.71,10.71,0,0,0,49.56,38.63"/><path class="cls-2" d="M10.7,98.35h0A10.7,10.7,0,0,1,0,87.65v-77a10.71,10.71,0,0,1,21.41,0v77A10.71,10.71,0,0,1,10.7,98.35"/><path class="cls-2" d="M265.81,98.35h0a10.7,10.7,0,0,1-10.7-10.7h0v-77a10.71,10.71,0,0,1,21.41,0v77a10.71,10.71,0,0,1-10.71,10.7"/><path class="cls-2" d="M32.61,58.17h0a10.71,10.71,0,0,1,14.92,2.57L62.38,81.79a10.71,10.71,0,0,1-17.5,12.34L30,73.08a10.7,10.7,0,0,1,2.58-14.91"/><path class="cls-2" d="M148.62,54a29.65,29.65,0,0,0-1.51-6.16,23.58,23.58,0,0,0-5.87-8.91A27.77,27.77,0,0,0,131.37,33a40.33,40.33,0,0,0-13.91-2.17,43.54,43.54,0,0,0-10.84,1.38V10.84a10.71,10.71,0,0,0-21.41,0v77a10.71,10.71,0,0,0,21.41,0V61.33q0-4.81,2.36-7.5c1.57-1.79,5.21-2.69,8.1-2.69s6.62.9,8.19,2.69,2.36,4.29,2.36,7.5V87.79a10.7,10.7,0,0,0,21.4,0v-31a10.58,10.58,0,0,0-.41-2.79"/><path class="cls-2" d="M223.56,28.79A10.73,10.73,0,0,0,212.85,39.5V69.13c0,3.2-.78,5.7-2.36,7.49s-5.2,2.69-8.09,2.69-6.62-.9-8.19-2.69-2.36-4.29-2.36-7.49V39.5a10.71,10.71,0,1,0-21.41-.65c0,.21,0,.43,0,.65V71.58a31.27,31.27,0,0,0,1.93,11.08,23.65,23.65,0,0,0,5.87,8.91,28.11,28.11,0,0,0,9.86,5.94A40.79,40.79,0,0,0,202,99.67a41.36,41.36,0,0,0,14-2.16,29.13,29.13,0,0,0,10.06-5.94,24.78,24.78,0,0,0,6.11-8.91,29.41,29.41,0,0,0,2.07-11.08V39.5a10.71,10.71,0,0,0-10.7-10.71"/><path class="cls-2" d="M362,45.81a23.58,23.58,0,0,0-5.87-8.91A28.15,28.15,0,0,0,346.26,31a40.57,40.57,0,0,0-13.91-2.17,41.37,41.37,0,0,0-14,2.17,29.13,29.13,0,0,0-10.06,5.94,24.57,24.57,0,0,0-6.11,8.91,29.38,29.38,0,0,0-2.08,11.08V89a10.71,10.71,0,0,0,21.41,0V59.34q0-4.8,2.36-7.49c1.57-1.8,5.21-2.69,8.1-2.69s6.62.89,8.19,2.69,2.36,4.29,2.36,7.49V61.6a10.7,10.7,0,0,0,0,21.39v6a10.7,10.7,0,0,0,21.4,0V56.89A31.48,31.48,0,0,0,362,45.81"/></g></g></svg>