<svg xmlns="http://www.w3.org/2000/svg" width="184.2" height="178.5" viewBox="0 0 184.2 178.5">
  <g id="Group_690" data-name="Group 690" transform="translate(-615.3 -174.215)">
    <path id="ic_https_24px" d="M69.625,33.813H64.938V24.438a23.438,23.438,0,1,0-46.875,0v9.375H13.375A9.4,9.4,0,0,0,4,43.188V90.063a9.4,9.4,0,0,0,9.375,9.375h56.25A9.4,9.4,0,0,0,79,90.063V43.188A9.4,9.4,0,0,0,69.625,33.813ZM41.5,76a9.375,9.375,0,1,1,9.375-9.375A9.4,9.4,0,0,1,41.5,76ZM56.031,33.813H26.969V24.438a14.531,14.531,0,1,1,29.063,0Z" transform="translate(664 206)" fill="#95989a"/>
    <g id="Group_678" data-name="Group 678" transform="translate(234 -36)">
      <line id="Line_90" data-name="Line 90" x2="10" transform="translate(555.5 268.5)" fill="none" stroke="#707070" stroke-width="1"/>
      <line id="Line_91" data-name="Line 91" y2="10" transform="translate(560.5 263.5)" fill="none" stroke="#707070" stroke-width="1"/>
    </g>
    <g id="Group_688" data-name="Group 688" transform="translate(-212.169 -98.469)">
      <g id="Group_682" data-name="Group 682" transform="translate(854.846 305.578)">
        <line id="Line_90-2" data-name="Line 90" x2="10" transform="translate(0 5)" fill="none" stroke="#387c3f" stroke-width="1"/>
        <line id="Line_91-2" data-name="Line 91" y2="10" transform="translate(5)" fill="none" stroke="#387c3f" stroke-width="1"/>
      </g>
      <g id="Group_680" data-name="Group 680" transform="translate(946.999 441.184)">
        <line id="Line_90-3" data-name="Line 90" x2="10" transform="translate(0 5)" fill="none" stroke="#707070" stroke-width="1"/>
        <line id="Line_91-3" data-name="Line 91" y2="10" transform="translate(5)" fill="none" stroke="#707070" stroke-width="1"/>
      </g>
      <g id="Group_679" data-name="Group 679" transform="translate(827.468 388.624)">
        <line id="Line_90-4" data-name="Line 90" x2="10" transform="translate(0 5)" fill="none" stroke="#707070" stroke-width="1"/>
        <line id="Line_91-4" data-name="Line 91" y2="10" transform="translate(5)" fill="none" stroke="#707070" stroke-width="1"/>
      </g>
      <g id="Group_686" data-name="Group 686" transform="translate(984.01 383.458)">
        <line id="Line_90-5" data-name="Line 90" x2="10" transform="translate(0 5)" fill="none" stroke="#387c3f" stroke-width="1"/>
        <line id="Line_91-5" data-name="Line 91" y2="10" transform="translate(5)" fill="none" stroke="#387c3f" stroke-width="1"/>
      </g>
      <g id="Group_685" data-name="Group 685" transform="translate(946.797 272.684)">
        <line id="Line_90-6" data-name="Line 90" x2="10" transform="translate(0 5)" fill="none" stroke="#707070" stroke-width="1"/>
        <line id="Line_91-6" data-name="Line 91" y2="10" transform="translate(5)" fill="none" stroke="#707070" stroke-width="1"/>
      </g>
      <g id="Group_689" data-name="Group 689" transform="translate(873.847 424.578)">
        <line id="Line_90-7" data-name="Line 90" x2="10" transform="translate(0 5)" fill="none" stroke="#387c3f" stroke-width="1"/>
        <line id="Line_91-7" data-name="Line 91" y2="10" transform="translate(5)" fill="none" stroke="#387c3f" stroke-width="1"/>
      </g>
    </g>
  </g>
</svg>
