<svg xmlns="http://www.w3.org/2000/svg" viewBox="0 0 209.82 209.82"><defs><style>.cls-1{fill:#013333;}.cls-2{fill:#3cb879;}.cls-3{fill:#fff;}</style></defs><title>Asset 1</title><g id="Layer_2" data-name="Layer 2"><g id="Layer_1-2" data-name="Layer 1"><path class="cls-1" d="M170.12,209.82H39.7A39.69,39.69,0,0,1,0,170.14V39.7A39.69,39.69,0,0,1,39.68,0H170.12a39.69,39.69,0,0,1,39.7,39.68V170.12a39.69,39.69,0,0,1-39.68,39.7h0"/><path class="cls-2" d="M131.68,88.41a16.47,16.47,0,0,0-32.92-1h0v17.5h17.47a16.49,16.49,0,0,0,15.48-16.44"/><path class="cls-3" d="M71.91,180.36h0A16.47,16.47,0,0,1,55.4,163.93V45.45a16.48,16.48,0,1,1,32.95-.81q0,.4,0,.81V163.91a16.49,16.49,0,0,1-16.44,16.45"/><path class="cls-3" d="M105.59,118.5h0a16.49,16.49,0,0,1,23,4l0,0,22.82,32.41a16.48,16.48,0,0,1-26.93,19L101.63,141.5a16.49,16.49,0,0,1,4-23l0,0"/></g></g></svg>